<svg width="279" height="89" viewBox="0 0 279 89" fill="none" xmlns="http://www.w3.org/2000/svg">
<g filter="url(#filter0_d)">
<rect x="8" y="8" width="259" height="69" rx="14" fill="#F9F9F9"/>
<path d="M120.964 62.9382C124.257 62.9382 126.927 60.2682 126.927 56.9745C126.927 53.6808 124.257 51.0108 120.964 51.0108C117.67 51.0108 115 53.6808 115 56.9745C115 60.2682 117.67 62.9382 120.964 62.9382Z" fill="url(#paint0_linear)"/>
<path fill-rule="evenodd" clip-rule="evenodd" d="M126.81 55.7214H115.155C114.972 56.5625 114.973 57.4332 115.157 58.2741H126.808C126.896 57.8721 126.943 57.4551 126.946 57.0276V56.9586C126.944 56.5426 126.898 56.1279 126.81 55.7214H126.81ZM116.414 60.8265C117.476 62.091 119.052 62.9082 120.821 62.955H121.144C122.913 62.9082 124.49 62.091 125.551 60.8265H116.414ZM125.559 53.169C124.481 51.8799 122.868 51.0534 121.061 51.03H120.904C120.044 51.0404 119.197 51.237 118.42 51.6063C117.644 51.9755 116.957 52.5087 116.406 53.169H125.559Z" fill="#1A1918"/>
<path d="M131 54.3579H132.527C133.244 54.3579 133.763 54.4683 134.083 54.6891C134.403 54.9099 134.564 55.2589 134.564 55.736C134.564 56.066 134.474 56.3388 134.294 56.5546C134.116 56.7678 133.856 56.9061 133.514 56.9695V57.0076C134.334 57.1523 134.745 57.5964 134.745 58.3401C134.745 58.8376 134.581 59.2259 134.253 59.5051C133.928 59.7843 133.472 59.9239 132.885 59.9239H131V54.3579ZM131.628 56.7411H132.663C133.107 56.7411 133.426 56.6701 133.621 56.5279C133.816 56.3832 133.913 56.1409 133.913 55.8008C133.913 55.4886 133.804 55.264 133.588 55.1269C133.371 54.9873 133.026 54.9175 132.553 54.9175H131.628V56.7411ZM131.628 57.2893V59.3718H132.756C133.192 59.3718 133.52 59.2855 133.739 59.1129C133.961 58.9378 134.072 58.665 134.072 58.2944C134.072 57.9492 133.958 57.6954 133.732 57.533C133.508 57.3706 133.165 57.2893 132.704 57.2893H131.628Z" fill="#3A3A3A"/>
<path d="M137.528 60C136.929 60 136.456 59.8122 136.109 59.4365C135.764 59.0609 135.591 58.5393 135.591 57.8718C135.591 57.1992 135.751 56.665 136.072 56.269C136.395 55.8731 136.827 55.6751 137.369 55.6751C137.877 55.6751 138.279 55.8477 138.574 56.1929C138.87 56.5355 139.018 56.9886 139.018 57.552V57.9518H136.227C136.239 58.4416 136.359 58.8135 136.586 59.0673C136.815 59.3211 137.136 59.448 137.55 59.448C137.987 59.448 138.418 59.3541 138.844 59.1662V59.7297C138.627 59.8261 138.422 59.8947 138.227 59.9353C138.035 59.9784 137.802 60 137.528 60ZM137.362 56.2043C137.037 56.2043 136.777 56.3135 136.582 56.5317C136.39 56.75 136.276 57.052 136.242 57.4378H138.36C138.36 57.0393 138.274 56.7348 138.101 56.5241C137.929 56.3109 137.682 56.2043 137.362 56.2043Z" fill="#3A3A3A"/>
<path d="M141.779 60C141.18 60 140.707 59.8122 140.36 59.4365C140.015 59.0609 139.842 58.5393 139.842 57.8718C139.842 57.1992 140.002 56.665 140.323 56.269C140.646 55.8731 141.078 55.6751 141.62 55.6751C142.128 55.6751 142.53 55.8477 142.825 56.1929C143.121 56.5355 143.269 56.9886 143.269 57.552V57.9518H140.478C140.49 58.4416 140.61 58.8135 140.837 59.0673C141.066 59.3211 141.387 59.448 141.801 59.448C142.238 59.448 142.669 59.3541 143.095 59.1662V59.7297C142.878 59.8261 142.673 59.8947 142.478 59.9353C142.286 59.9784 142.053 60 141.779 60ZM141.613 56.2043C141.288 56.2043 141.028 56.3135 140.833 56.5317C140.641 56.75 140.527 57.052 140.493 57.4378H142.611C142.611 57.0393 142.525 56.7348 142.352 56.5241C142.18 56.3109 141.933 56.2043 141.613 56.2043Z" fill="#3A3A3A"/>
<path d="M144.932 59.9239H144.319V54H144.932V59.9239Z" fill="#3A3A3A"/>
<path d="M146.847 59.9239H146.234V55.7513H146.847V59.9239ZM146.182 54.6206C146.182 54.4759 146.216 54.3706 146.285 54.3046C146.354 54.236 146.441 54.2018 146.544 54.2018C146.643 54.2018 146.728 54.236 146.799 54.3046C146.871 54.3731 146.906 54.4784 146.906 54.6206C146.906 54.7627 146.871 54.8693 146.799 54.9404C146.728 55.0089 146.643 55.0431 146.544 55.0431C146.441 55.0431 146.354 55.0089 146.285 54.9404C146.216 54.8693 146.182 54.7627 146.182 54.6206Z" fill="#3A3A3A"/>
<path d="M150.921 59.9239V57.2246C150.921 56.8845 150.846 56.6307 150.695 56.4632C150.545 56.2957 150.31 56.2119 149.989 56.2119C149.565 56.2119 149.255 56.3299 149.058 56.566C148.861 56.802 148.762 57.1916 148.762 57.7348V59.9239H148.148V55.7513H148.647L148.747 56.3223H148.777C148.903 56.1168 149.079 55.9581 149.305 55.8464C149.532 55.7322 149.785 55.6751 150.063 55.6751C150.551 55.6751 150.918 55.797 151.165 56.0406C151.411 56.2817 151.535 56.6688 151.535 57.2018V59.9239H150.921Z" fill="#3A3A3A"/>
<path d="M154.51 60C153.911 60 153.438 59.8122 153.091 59.4365C152.746 59.0609 152.573 58.5393 152.573 57.8718C152.573 57.1992 152.733 56.665 153.054 56.269C153.377 55.8731 153.809 55.6751 154.351 55.6751C154.859 55.6751 155.261 55.8477 155.556 56.1929C155.852 56.5355 156 56.9886 156 57.552V57.9518H153.209C153.221 58.4416 153.341 58.8135 153.568 59.0673C153.797 59.3211 154.118 59.448 154.532 59.448C154.969 59.448 155.4 59.3541 155.826 59.1662V59.7297C155.609 59.8261 155.404 59.8947 155.209 59.9353C155.017 59.9784 154.784 60 154.51 60ZM154.344 56.2043C154.019 56.2043 153.759 56.3135 153.564 56.5317C153.372 56.75 153.258 57.052 153.224 57.4378H155.342C155.342 57.0393 155.256 56.7348 155.083 56.5241C154.911 56.3109 154.664 56.2043 154.344 56.2043Z" fill="#3A3A3A"/>
<path d="M183.108 53.5672V54.3117C182.363 53.6884 181.421 53.3496 180.45 53.3554C177.984 53.3554 176 55.4476 176 58.1688C176.001 59.3402 176.409 60.4747 177.156 61.3778C177.578 61.8758 178.103 62.2769 178.695 62.5538C179.287 62.8307 179.931 62.9768 180.585 62.9823C181.512 62.9935 182.41 62.6621 183.108 62.0517V62.7898H185.458V53.5672H183.108ZM183.018 59.5615C182.773 59.9152 182.446 60.2041 182.065 60.4031C181.683 60.6021 181.259 60.7054 180.829 60.7039C180.19 60.6663 179.589 60.3878 179.147 59.9248C178.705 59.4617 178.455 58.8484 178.448 58.2086C178.44 57.5688 178.676 56.9499 179.107 56.4769C179.538 56.0038 180.133 55.7117 180.771 55.6594C181.209 55.6604 181.64 55.7643 182.031 55.9628C182.421 56.1612 182.759 56.4486 183.018 56.8018V59.5615ZM195.597 60.9157C195.139 61.5787 194.521 62.1155 193.801 62.4767C193.08 62.8379 192.28 63.0118 191.475 62.9823C190.197 62.9823 188.973 62.4752 188.069 61.5725C187.166 60.6698 186.659 59.4455 186.659 58.1688C186.659 56.8922 187.166 55.6679 188.069 54.7652C188.973 53.8625 190.197 53.3554 191.475 53.3554C192.21 53.35 192.937 53.5133 193.599 53.8326C194.261 54.1519 194.842 54.6188 195.295 55.1973L193.574 56.7376C193.335 56.4026 193.02 56.1283 192.656 55.9366C192.291 55.7449 191.887 55.6412 191.475 55.6338C191.143 55.6343 190.815 55.7019 190.511 55.8327C190.206 55.9634 189.931 56.1546 189.702 56.3945C189.474 56.6345 189.296 56.9182 189.18 57.2287C189.064 57.5392 189.013 57.8699 189.028 58.2009C189.015 58.5336 189.07 58.8654 189.191 59.1755C189.312 59.4857 189.496 59.7674 189.731 60.0031C189.966 60.2388 190.248 60.4233 190.558 60.545C190.868 60.6667 191.2 60.723 191.532 60.7104C191.967 60.7013 192.392 60.5853 192.771 60.3725C193.149 60.1598 193.469 59.857 193.703 59.4909L195.597 60.9157ZM202.827 62.7962C202.333 62.9271 201.823 62.9919 201.312 62.9887C200.72 63.0351 200.125 62.938 199.578 62.7056C199.032 62.4732 198.549 62.1124 198.172 61.6538C197.646 60.8346 197.409 59.8634 197.498 58.8941V55.6851H195.982V53.5672H197.498V51H199.931V53.5672H202.827V55.6594H199.931V59.1829C199.888 59.5929 199.993 60.0048 200.227 60.3445C200.386 60.5075 200.581 60.633 200.795 60.7118C201.009 60.7906 201.238 60.8208 201.466 60.8002C201.798 60.7968 202.128 60.7646 202.455 60.7039L202.827 62.7962ZM204.516 53.5672H206.943V62.7962H204.516V53.5672ZM218 53.5672L213.826 62.7962H212.144L207.97 53.5672H210.5L212.985 59.2021L215.477 53.5672H218Z" fill="#A0248E"/>
<path d="M80.6038 57.5933C80.6038 57.4309 80.7339 55.8678 82.458 55.8678C83.601 55.8678 84.0135 56.5142 84.2301 57.5933H80.6038ZM82.5193 54.1893C79.9518 54.1893 78.3733 56.1358 78.3733 58.4678C78.3733 60.483 79.5294 62.7176 82.5193 62.7176C85.2322 62.7176 86.0035 60.9791 86.3176 60.0071H84.9028C84.5768 60.0071 84.3397 60.1358 84.1182 60.4084C84.0256 60.5142 83.5515 61.0561 82.5986 61.0561C80.6688 61.0561 80.6412 59.5265 80.6038 59.0038H86.4596C86.6246 56.6562 85.3815 54.1893 82.5193 54.1893ZM87.8409 51.3584V60.4793C87.8576 62.016 88.1403 62.5495 90.057 62.5495L90.0558 53.157C90.04 51.6456 89.7466 51.3582 87.8406 51.3582L87.8409 51.3584ZM92.1433 51.3584V60.4793C92.1601 62.016 92.444 62.5495 94.3595 62.5495L94.357 53.157C94.3425 51.6456 94.0503 51.3582 92.1433 51.3582V51.3584ZM75.9344 59.4111C75.9344 59.4111 75.4268 59.3931 75.2319 59.9266C74.9552 60.686 74.4486 61.0561 73.5859 61.0561C72.2445 61.0561 71.7342 59.7799 71.7342 58.4691C71.7342 57.2244 72.259 55.8678 73.634 55.8678C74.492 55.8678 74.9466 56.2512 75.1417 56.7487C75.2477 57.0189 75.4051 57.264 75.8972 57.264H77.4648C77.3458 55.1709 75.5434 54.1893 73.6473 54.1893C70.8536 54.1893 69.506 56.2125 69.506 58.5653C69.506 61.1991 71.336 62.7178 73.6005 62.7178C75.5808 62.7178 77.199 61.7254 77.5094 59.4111H75.9344Z" fill="#5C3887"/>
<path d="M59.6006 62.5495H62.055V58.9462L63.4664 57.5175C63.4664 57.5175 64.8295 59.5397 65.7452 60.9178C66.6642 62.2924 67.1046 62.5495 68.7456 62.5495H69.9358L65.1338 55.7775L69.5109 51.3584H68.3115C67.1504 51.3584 66.3984 51.4002 65.4756 52.3762C64.5479 53.3482 62.055 55.9987 62.055 55.9987V53.5345C62.0516 51.9111 61.7736 51.3547 59.6008 51.3547V62.5495H59.6006Z" fill="#5C3887"/>
<path d="M39.4844 32.2734C39.4844 34.1016 39.0208 35.5391 38.0938 36.5859C37.1719 37.6328 35.888 38.1562 34.2422 38.1562C32.5599 38.1562 31.2604 37.6432 30.3438 36.6172C29.4323 35.5859 28.9766 34.1328 28.9766 32.2578C28.9766 30.3984 29.4349 28.9583 30.3516 27.9375C31.2682 26.9115 32.5703 26.3984 34.2578 26.3984C35.8984 26.3984 37.1797 26.9193 38.1016 27.9609C39.0234 29.0026 39.4844 30.4401 39.4844 32.2734ZM30.3828 32.2734C30.3828 33.8203 30.7109 34.9948 31.3672 35.7969C32.0286 36.5938 32.987 36.9922 34.2422 36.9922C35.5078 36.9922 36.4635 36.5938 37.1094 35.7969C37.7552 35 38.0781 33.8255 38.0781 32.2734C38.0781 30.737 37.7552 29.5729 37.1094 28.7812C36.4688 27.9844 35.5182 27.5859 34.2578 27.5859C32.9922 27.5859 32.0286 27.987 31.3672 28.7891C30.7109 29.5859 30.3828 30.7474 30.3828 32.2734ZM43.1406 38H41.8438V29.4375H49.0312V38H47.7188V30.5625H43.1406V38ZM58.1641 38H56.8516V30.5469H54.2812C54.1406 32.401 53.9453 33.8724 53.6953 34.9609C53.4453 36.0495 53.1198 36.8464 52.7188 37.3516C52.3229 37.8568 51.8177 38.1094 51.2031 38.1094C50.9219 38.1094 50.6979 38.0781 50.5312 38.0156V37.0547C50.6458 37.0859 50.776 37.1016 50.9219 37.1016C51.5208 37.1016 51.9974 36.4688 52.3516 35.2031C52.7057 33.9375 52.974 32.0156 53.1562 29.4375H58.1641V38ZM66.1875 38L65.9297 36.7812H65.8672C65.4401 37.3177 65.013 37.6823 64.5859 37.875C64.1641 38.0625 63.6354 38.1562 63 38.1562C62.151 38.1562 61.4844 37.9375 61 37.5C60.5208 37.0625 60.2812 36.4401 60.2812 35.6328C60.2812 33.9036 61.6641 32.9974 64.4297 32.9141L65.8828 32.8672V32.3359C65.8828 31.6641 65.737 31.1693 65.4453 30.8516C65.1589 30.5286 64.6979 30.3672 64.0625 30.3672C63.349 30.3672 62.5417 30.5859 61.6406 31.0234L61.2422 30.0312C61.6641 29.8021 62.125 29.6224 62.625 29.4922C63.1302 29.362 63.6354 29.2969 64.1406 29.2969C65.1615 29.2969 65.9167 29.5234 66.4062 29.9766C66.901 30.4297 67.1484 31.1562 67.1484 32.1562V38H66.1875ZM63.2578 37.0859C64.0651 37.0859 64.6979 36.8646 65.1562 36.4219C65.6198 35.9792 65.8516 35.3594 65.8516 34.5625V33.7891L64.5547 33.8438C63.5234 33.8802 62.7786 34.0417 62.3203 34.3281C61.8672 34.6094 61.6406 35.0495 61.6406 35.6484C61.6406 36.1172 61.7812 36.474 62.0625 36.7188C62.349 36.9635 62.7474 37.0859 63.2578 37.0859ZM75.6016 30.5469H72.8203V38H71.5234V30.5469H68.7734V29.4375H75.6016V30.5469ZM78.5156 29.4375V34.8672L78.4609 36.2891L78.4375 36.7344L83.0703 29.4375H84.6875V38H83.4766V32.7656L83.5 31.7344L83.5391 30.7188L78.9141 38H77.2969V29.4375H78.5156ZM93.2109 30.5469H90.4297V38H89.1328V30.5469H86.3828V29.4375H93.2109V30.5469ZM96.2031 32.9766H98.8438C101.031 32.9766 102.125 33.7812 102.125 35.3906C102.125 36.2344 101.839 36.8802 101.266 37.3281C100.698 37.776 99.8646 38 98.7656 38H94.9062V29.4375H96.2031V32.9766ZM96.2031 34.0938V36.9141H98.7031C99.3906 36.9141 99.9167 36.7943 100.281 36.5547C100.646 36.3151 100.828 35.9531 100.828 35.4688C100.828 34.9948 100.659 34.6484 100.32 34.4297C99.987 34.2057 99.4349 34.0938 98.6641 34.0938H96.2031ZM109.672 29.4375V32.5625C109.672 33.5625 110.242 34.0625 111.383 34.0625C111.857 34.0625 112.31 33.9896 112.742 33.8438C113.174 33.6979 113.664 33.4505 114.211 33.1016V29.4375H115.508V38H114.211V34.125C113.664 34.5 113.156 34.7656 112.688 34.9219C112.224 35.0729 111.698 35.1484 111.109 35.1484C110.255 35.1484 109.586 34.9245 109.102 34.4766C108.617 34.0286 108.375 33.4219 108.375 32.6562V29.4375H109.672ZM121.883 38.1562C120.617 38.1562 119.617 37.7708 118.883 37C118.154 36.2292 117.789 35.1589 117.789 33.7891C117.789 32.4089 118.128 31.3125 118.805 30.5C119.487 29.6875 120.401 29.2812 121.547 29.2812C122.62 29.2812 123.469 29.6354 124.094 30.3438C124.719 31.0469 125.031 31.9766 125.031 33.1328V33.9531H119.133C119.159 34.9583 119.411 35.7214 119.891 36.2422C120.375 36.763 121.055 37.0234 121.93 37.0234C122.852 37.0234 123.763 36.8307 124.664 36.4453V37.6016C124.206 37.7995 123.771 37.9401 123.359 38.0234C122.953 38.112 122.461 38.1562 121.883 38.1562ZM121.531 30.3672C120.844 30.3672 120.294 30.5911 119.883 31.0391C119.477 31.487 119.237 32.1068 119.164 32.8984H123.641C123.641 32.0807 123.458 31.4557 123.094 31.0234C122.729 30.5859 122.208 30.3672 121.531 30.3672ZM131.234 38.1562C130.677 38.1562 130.167 38.0547 129.703 37.8516C129.245 37.6432 128.859 37.3255 128.547 36.8984H128.453C128.516 37.3984 128.547 37.8724 128.547 38.3203V41.8438H127.25V29.4375H128.305L128.484 30.6094H128.547C128.88 30.1406 129.268 29.8021 129.711 29.5938C130.154 29.3854 130.661 29.2812 131.234 29.2812C132.37 29.2812 133.245 29.6693 133.859 30.4453C134.479 31.2214 134.789 32.3099 134.789 33.7109C134.789 35.1172 134.474 36.2109 133.844 36.9922C133.219 37.7682 132.349 38.1562 131.234 38.1562ZM131.047 30.3828C130.172 30.3828 129.539 30.625 129.148 31.1094C128.758 31.5938 128.557 32.3646 128.547 33.4219V33.7109C128.547 34.9141 128.747 35.776 129.148 36.2969C129.549 36.8125 130.193 37.0703 131.078 37.0703C131.818 37.0703 132.396 36.7708 132.812 36.1719C133.234 35.5729 133.445 34.7474 133.445 33.6953C133.445 32.6276 133.234 31.8099 132.812 31.2422C132.396 30.6693 131.807 30.3828 131.047 30.3828ZM140.68 38.1562C139.414 38.1562 138.414 37.7708 137.68 37C136.951 36.2292 136.586 35.1589 136.586 33.7891C136.586 32.4089 136.924 31.3125 137.602 30.5C138.284 29.6875 139.198 29.2812 140.344 29.2812C141.417 29.2812 142.266 29.6354 142.891 30.3438C143.516 31.0469 143.828 31.9766 143.828 33.1328V33.9531H137.93C137.956 34.9583 138.208 35.7214 138.688 36.2422C139.172 36.763 139.852 37.0234 140.727 37.0234C141.648 37.0234 142.56 36.8307 143.461 36.4453V37.6016C143.003 37.7995 142.568 37.9401 142.156 38.0234C141.75 38.112 141.258 38.1562 140.68 38.1562ZM140.328 30.3672C139.641 30.3672 139.091 30.5911 138.68 31.0391C138.273 31.487 138.034 32.1068 137.961 32.8984H142.438C142.438 32.0807 142.255 31.4557 141.891 31.0234C141.526 30.5859 141.005 30.3672 140.328 30.3672ZM147.68 32.9922C149.299 32.9922 150.109 32.5443 150.109 31.6484C150.109 30.8047 149.453 30.3828 148.141 30.3828C147.74 30.3828 147.375 30.4193 147.047 30.4922C146.719 30.5651 146.289 30.7109 145.758 30.9297L145.297 29.875C146.182 29.4792 147.148 29.2812 148.195 29.2812C149.18 29.2812 149.956 29.4844 150.523 29.8906C151.091 30.2917 151.375 30.8411 151.375 31.5391C151.375 32.4974 150.841 33.125 149.773 33.4219V33.4844C150.43 33.6771 150.909 33.9531 151.211 34.3125C151.513 34.6667 151.664 35.112 151.664 35.6484C151.664 36.4401 151.344 37.0573 150.703 37.5C150.068 37.9375 149.188 38.1562 148.062 38.1562C146.828 38.1562 145.875 37.9714 145.203 37.6016V36.4141C146.156 36.862 147.12 37.0859 148.094 37.0859C148.844 37.0859 149.409 36.9583 149.789 36.7031C150.174 36.4427 150.367 36.0703 150.367 35.5859C150.367 34.5911 149.557 34.0938 147.938 34.0938H146.75V32.9922H147.68Z" fill="#3A3A3A"/>
<path d="M198.457 30.2154C198 29.4154 197.429 28.7384 196.743 28.2461C196 27.7538 195.2 27.5077 194.286 27.5077C194.114 27.5077 193.886 27.5077 193.714 27.5077C192.857 27.6308 192.057 28 191.429 28.4923C191.257 28.6769 191.086 28.8 190.971 28.9846C190.8 28.7384 190.686 28.4923 190.571 28.3077C190.286 27.9384 190.114 27.6923 190.057 27.6923C189.714 27.3846 189.2 27.3846 188.914 27.7538C188.629 28.1231 188.629 28.6154 188.971 28.9231C188.971 28.9231 189.2 29.1692 189.429 29.6C189.543 29.7846 189.6 30.0923 189.714 30.3384C189.829 30.5846 189.886 30.8923 189.886 31.2615V38.6461C189.886 39.1384 190.229 39.5077 190.686 39.5077C191.143 39.5077 191.486 39.1384 191.486 38.6461V36.9231C191.657 37.0461 191.886 37.1077 192.057 37.2308C192.743 37.5384 193.429 37.7231 194.171 37.7231C194.343 37.7231 194.571 37.7231 194.8 37.6615C195.371 37.5384 195.943 37.4154 196.457 37.1077C197.2 36.6154 197.829 36 198.286 35.2615C198.743 34.4615 198.971 33.6 198.971 32.6154C198.971 32.4308 198.971 32.1846 198.914 32C198.857 31.3846 198.686 30.7077 198.457 30.2154ZM196.629 34.8308C196.4 35.1384 196.114 35.3846 195.771 35.5692C195.429 35.7538 195.029 35.8769 194.686 35.9384C194.514 35.9384 194.4 35.9384 194.229 35.9384C193.714 35.9384 193.2 35.8154 192.743 35.5692C192.286 35.3846 191.943 35.0769 191.543 34.7692V31.1384C191.714 30.5846 192.057 30.1538 192.457 29.8461C192.857 29.4769 193.314 29.2923 193.886 29.2308C194 29.2308 194.114 29.2308 194.286 29.2308C195.029 29.2308 195.771 29.5384 196.343 30.0308C196.629 30.2769 196.857 30.5846 197.029 30.9538C197.2 31.3231 197.314 31.7538 197.371 32.1231C197.371 32.2461 197.371 32.3692 197.371 32.5538C197.371 33.4154 197.086 34.2154 196.629 34.8308Z" fill="#3A3A3A"/>
<path d="M176.286 28.1846C175.543 27.6923 174.686 27.5077 173.943 27.5077C173.771 27.5077 173.486 27.5077 173.314 27.5692C172.857 27.6308 172.571 28.0615 172.629 28.5538C172.686 29.0462 173.086 29.4154 173.543 29.2923C173.714 29.2923 173.829 29.2923 174 29.2923C174.514 29.2923 175.086 29.4769 175.543 29.7846C176.057 30.0923 176.4 30.5231 176.686 31.0154C176.971 31.5077 177.143 32.1231 177.143 32.6769C177.143 33.2308 176.971 33.8462 176.686 34.3385C176.4 34.8923 176 35.2615 175.543 35.5692C175.086 35.8769 174.514 36.0615 174 36.0615C173.486 36.0615 172.914 35.8769 172.457 35.5692C171.943 35.2615 171.6 34.8308 171.314 34.3385C171.029 33.7846 170.857 33.2308 170.857 32.6769C170.857 32.1231 171.029 31.5077 171.314 31.0154C171.371 30.8923 171.486 30.7692 171.486 30.6462C171.771 30.2769 171.657 29.7231 171.314 29.4769C170.971 29.1692 170.457 29.2923 170.229 29.6615C170.114 29.8462 170 30.0308 169.886 30.1538C169.429 30.9538 169.257 31.8154 169.257 32.6769C169.257 33.5385 169.429 34.4615 169.886 35.2C170.286 36 170.914 36.6769 171.6 37.1077C172.343 37.6 173.143 37.7846 173.943 37.7846C174.743 37.7846 175.543 37.5385 176.229 37.1077C176.971 36.6769 177.6 36 178 35.2615C178.457 34.4615 178.629 33.6 178.629 32.7385C178.629 31.8769 178.457 30.9538 178 30.2154C177.6 29.3538 177.029 28.6769 176.286 28.1846Z" fill="#3A3A3A"/>
<path d="M169.486 27.5077C169.143 27.2 168.571 27.3231 168.343 27.6923C168.171 27.9384 168 28.2461 167.829 28.4923C167.6 28.9846 167.371 29.3538 167.257 29.8461L165.429 34.8308L163.829 31.8154C163.657 31.5692 163.371 31.3231 163.143 31.3231C162.857 31.3231 162.629 31.5077 162.457 31.7538L160.8 34.8308L158.171 27.5692C158 27.2615 157.714 27.0769 157.429 27.0769C157.314 27.0769 157.257 27.0769 157.143 27.1384C156.686 27.3231 156.514 27.8154 156.686 28.3077L159.943 37.2308C160.057 37.5384 160.343 37.7231 160.629 37.7846C160.971 37.7846 161.257 37.6 161.371 37.3538L163.143 34.0308L164.857 37.3538C165.029 37.6615 165.314 37.8461 165.6 37.8461C165.943 37.8461 166.171 37.6 166.286 37.2923L168.686 30.5846C168.8 30.2154 168.971 29.8461 169.143 29.4769C169.314 29.2308 169.429 28.9846 169.6 28.7384C169.886 28.3692 169.829 27.7538 169.486 27.5077Z" fill="#3A3A3A"/>
<path d="M161.829 30.0308C162 30.4615 162.457 30.6462 162.914 30.4615C163.371 30.2769 163.486 29.7231 163.314 29.2923L162.571 27.5077C162.4 27.2 162.114 27.0154 161.829 27.0154C161.714 27.0154 161.657 27.0154 161.486 27.1385C161.086 27.3231 160.914 27.8769 161.086 28.3077L161.829 30.0308Z" fill="#3A3A3A"/>
<path d="M186.571 28.1846C185.829 27.6923 185.029 27.5077 184.229 27.5077C184.057 27.5077 183.829 27.5077 183.6 27.5077C183.143 27.5692 182.857 28 182.914 28.4923C182.971 28.9846 183.371 29.3538 183.829 29.2308C184 29.2308 184.114 29.2308 184.286 29.2308C184.8 29.2308 185.371 29.4154 185.829 29.7231C186.343 30.0308 186.686 30.4615 186.971 30.9538C187.257 31.4462 187.429 32.0615 187.429 32.6154C187.429 33.1692 187.257 33.7846 186.971 34.2769C186.686 34.8308 186.286 35.2 185.829 35.5077C185.371 35.8154 184.8 36 184.286 36C183.771 36 183.2 35.8154 182.743 35.5077C182.229 35.2 181.886 34.7692 181.6 34.2769C181.314 33.7846 181.143 33.1692 181.143 32.6154C181.143 32.0615 181.314 31.4462 181.6 30.9538C181.657 30.8308 181.771 30.7077 181.771 30.5846C182.057 30.2154 181.943 29.6615 181.6 29.4154C181.257 29.1077 180.743 29.2308 180.514 29.6C180.4 29.7846 180.286 29.9692 180.171 30.0923C179.714 30.8923 179.543 31.7538 179.543 32.6154C179.543 33.4769 179.714 34.4 180.171 35.1385C180.571 35.9385 181.2 36.6154 181.886 37.0462C182.629 37.5385 183.429 37.7231 184.229 37.7231C185.029 37.7231 185.829 37.4769 186.514 37.0462C187.257 36.6154 187.886 35.9385 188.286 35.2C188.743 34.4 188.914 33.5385 188.914 32.6769C188.914 31.8154 188.743 30.8923 188.286 30.1538C187.886 29.3538 187.257 28.6769 186.571 28.1846Z" fill="#3A3A3A"/>
<path d="M217.771 32.1846C217.771 31.4462 217.486 30.6462 217.143 30.0308C217.028 29.8462 216.971 29.6615 216.8 29.5385C216.514 29.1692 216.057 29.0462 215.714 29.3538C215.371 29.6615 215.257 30.2154 215.543 30.5231C215.657 30.6462 215.714 30.7692 215.714 30.8923C216 31.3846 216.171 32 216.171 32.5538C216.171 33.1077 216 33.7231 215.714 34.2154C215.428 34.7077 215.086 35.1385 214.571 35.4462C214.114 35.7538 213.543 35.9385 213.028 35.9385C212.514 35.9385 211.943 35.7538 211.486 35.4462C211.028 35.1385 210.628 34.7077 210.343 34.2154C210.057 33.7231 209.886 33.1077 209.886 32.5538C209.886 32 210.057 31.3846 210.343 30.8923C210.628 30.4 210.971 29.9692 211.486 29.6615C211.943 29.3538 212.514 29.1692 213.028 29.1692C213.2 29.1692 213.314 29.1692 213.486 29.1692C213.943 29.2308 214.343 28.9231 214.4 28.4308C214.457 27.9385 214.171 27.5077 213.714 27.4462C213.543 27.4462 213.257 27.3846 213.086 27.3846C212.286 27.3846 211.486 27.5692 210.743 28.0615C210 28.5538 209.371 29.2308 209.028 29.9692C208.628 30.7692 208.4 31.6308 208.4 32.4923C208.4 33.3538 208.571 34.2769 209.028 35.0154C209.486 35.8769 210.114 36.4923 210.8 36.8615C211.543 37.2923 212.286 37.5385 213.086 37.5385C213.886 37.5385 214.686 37.3538 215.428 36.8615C216 36.4923 216.514 36 216.857 35.4462C217.028 35.9385 217.257 36.3077 217.486 36.6769C217.714 37.1077 218.228 37.1692 218.571 36.9231C218.971 36.6769 219.028 36.1231 218.743 35.7538C218.228 34.8923 217.771 33.6 217.771 32.1846Z" fill="#3A3A3A"/>
<path d="M247.771 35.9385C247.143 34.8923 246.686 33.6 246.686 32.1846C246.686 31.4462 246.4 30.6462 246.057 30.0308C245.943 29.8462 245.886 29.6615 245.714 29.5385C245.428 29.1692 244.971 29.0462 244.628 29.3538C244.286 29.6615 244.171 30.2154 244.457 30.5231C244.571 30.6462 244.628 30.7692 244.628 30.8923C244.914 31.3846 245.086 32 245.086 32.5538C245.086 33.1077 244.914 33.7231 244.628 34.2154C244.343 34.7077 244 35.1385 243.486 35.4462C243.028 35.7538 242.457 35.9385 241.943 35.9385C241.428 35.9385 240.857 35.7538 240.4 35.4462C239.943 35.1385 239.543 34.7077 239.257 34.2154C238.971 33.7231 238.8 33.1077 238.8 32.5538C238.8 32 238.971 31.3846 239.257 30.8923C239.543 30.4 239.886 29.9692 240.4 29.6615C240.857 29.3538 241.428 29.1692 241.943 29.1692C242.114 29.1692 242.228 29.1692 242.4 29.1692C242.857 29.2308 243.257 28.9231 243.314 28.4308C243.371 27.9385 243.086 27.5077 242.628 27.4462C242.457 27.4462 242.171 27.3846 242 27.3846C241.2 27.3846 240.4 27.5692 239.657 28.0615C238.914 28.5538 238.286 29.2308 237.943 29.9692C237.543 30.7692 237.314 31.6308 237.314 32.4923C237.314 33.3538 237.486 34.2769 237.943 35.0154C238.4 35.8769 239.028 36.4923 239.714 36.8615C240.457 37.2923 241.2 37.5385 242 37.5385C242.8 37.5385 243.6 37.3538 244.343 36.8615C244.914 36.4923 245.428 36 245.771 35.4462C245.943 35.9385 246.171 36.3077 246.4 36.6769C246.628 37.0462 247.143 37.1692 247.486 36.9231C247.886 36.8615 248.057 36.3692 247.771 35.9385Z" fill="#3A3A3A"/>
<path d="M223.143 31.0154C222.171 31.0154 221.714 30.7077 221.657 30.3385C221.657 29.9077 222.171 29.3539 223.429 29.2308C223.6 29.2308 224.514 29.1692 225.429 29.9077C225.829 30.1539 226.286 30.0923 226.571 29.7231C226.8 29.2923 226.743 28.8 226.4 28.4923C225.029 27.4462 223.714 27.5077 223.371 27.5077C221.086 27.6923 220 29.1077 220.114 30.4615C220.171 31.6308 221.2 32.9231 223.314 32.8615C224.571 32.8 225.429 33.0462 225.886 33.4769C226.057 33.6615 226.171 33.9692 226.171 34.2769C226.171 35.4462 224.8 36.1231 223.486 36.1231C223.029 36.1231 221.829 35.8154 221.086 34.6462C220.857 34.2154 220.343 34.1539 219.943 34.4615C219.543 34.7077 219.486 35.2615 219.771 35.6923C220.857 37.2923 222.4 37.8462 223.486 37.8462C225.6 37.8462 227.829 36.5539 227.829 34.1539C227.829 33.2923 227.543 32.6154 227.086 32.0615C226.114 31.3846 224.857 31.0154 223.143 31.0154Z" fill="#3A3A3A"/>
<path d="M232 31.0154C231.029 31.0154 230.571 30.7077 230.514 30.3385C230.514 29.9077 231.029 29.3539 232.286 29.2308C232.457 29.2308 233.371 29.1692 234.286 29.9077C234.686 30.1539 235.143 30.0923 235.429 29.7231C235.657 29.2923 235.6 28.8 235.257 28.4923C233.886 27.4462 232.571 27.5077 232.229 27.5077C229.943 27.6923 228.857 29.1077 228.971 30.4615C229.029 31.6308 230.057 32.9231 232.171 32.8615C233.429 32.8 234.286 33.0462 234.743 33.4769C234.914 33.6615 235.029 33.9692 235.029 34.2769C235.029 35.4462 233.657 36.1231 232.343 36.1231C231.886 36.1231 230.686 35.8154 229.943 34.6462C229.714 34.2154 229.2 34.1539 228.8 34.4615C228.4 34.7077 228.343 35.2615 228.629 35.6923C229.714 37.2923 231.257 37.8462 232.343 37.8462C234.457 37.8462 236.686 36.5539 236.686 34.1539C236.686 33.2923 236.4 32.6154 235.943 32.0615C234.971 31.3846 233.714 31.0154 232 31.0154Z" fill="#3A3A3A"/>
<path d="M207.714 34.7077C207.314 33.7846 206.914 32.6154 206.114 31.8154C206.914 30.9538 207.486 29.8461 207.486 28.3077C207.486 27.8154 207.086 27.4461 206.686 27.4461C206.229 27.4461 205.886 27.8769 205.886 28.3077C205.886 30.8308 203.2 31.9385 201.714 32.3692V28.9231C201.714 27.4461 201.314 26.0308 200.629 24.7385C200.4 24.3077 199.886 24.2461 199.543 24.4923C199.143 24.7385 199.086 25.2923 199.314 25.6615C199.886 26.6461 200.171 27.7538 200.171 28.8615V36.7385C200.171 37.2308 200.571 37.6 200.971 37.6C201.371 37.6 201.771 37.1692 201.771 36.7385V34.1538C202.514 33.9692 203.771 33.6 204.971 32.8C205.6 33.3538 206 34.3385 206.343 35.3231C206.629 36.0615 206.914 36.7385 207.314 37.2308C207.486 37.4154 207.714 37.6 207.943 37.6C208.114 37.6 208.286 37.5385 208.4 37.4154C208.743 37.1077 208.857 36.6154 208.571 36.1846C208.229 36 208 35.3231 207.714 34.7077Z" fill="#3A3A3A"/>
</g>
<defs>
<filter id="filter0_d" x="0" y="0" width="279" height="89" filterUnits="userSpaceOnUse" color-interpolation-filters="sRGB">
<feFlood flood-opacity="0" result="BackgroundImageFix"/>
<feColorMatrix in="SourceAlpha" type="matrix" values="0 0 0 0 0 0 0 0 0 0 0 0 0 0 0 0 0 0 127 0"/>
<feOffset dx="2" dy="2"/>
<feGaussianBlur stdDeviation="5"/>
<feColorMatrix type="matrix" values="0 0 0 0 0 0 0 0 0 0 0 0 0 0 0 0 0 0 0.05 0"/>
<feBlend mode="normal" in2="BackgroundImageFix" result="effect1_dropShadow"/>
<feBlend mode="normal" in="SourceGraphic" in2="effect1_dropShadow" result="shape"/>
</filter>
<linearGradient id="paint0_linear" x1="120.964" y1="51.0108" x2="120.964" y2="62.9382" gradientUnits="userSpaceOnUse">
<stop stop-color="#FCD755"/>
<stop offset="1" stop-color="#FEC819"/>
</linearGradient>
</defs>
</svg>

